<svg width="130" height="130" viewBox="0 0 130 130" fill="none" xmlns="http://www.w3.org/2000/svg">
<path d="M65 0C100.898 0 130 29.1017 130 65C130 100.898 100.898 130 65 130C29.1017 130 0 100.898 0 65C0 29.1017 29.1017 0 65 0Z" fill="#FBFBFB"/>
<path d="M108.809 51.7263L101.406 45.3306V29.6043C101.405 28.3252 100.896 27.0988 99.9917 26.1944C99.0872 25.2899 97.8609 24.7811 96.5817 24.7796H89.6258C88.3465 24.7809 87.12 25.2895 86.2153 26.194C85.3106 27.0985 84.8017 28.325 84.8003 29.6043V30.9839L70.0608 18.2494C69.4325 17.7012 68.6277 17.3977 67.7938 17.3943C66.9599 17.391 66.1528 17.688 65.52 18.2311L25.9039 51.9268C25.3553 52.3869 24.9632 53.0059 24.7815 53.6984C24.5998 54.3909 24.6375 55.1228 24.8895 55.7929C25.1326 56.4648 25.5779 57.0449 26.1641 57.4535C26.7504 57.862 27.4488 58.0789 28.1633 58.0743H28.1734L33.8531 58.0578V77.1733C33.8531 77.4259 33.9534 77.6682 34.1321 77.8469C34.3107 78.0255 34.553 78.1259 34.8057 78.1259C35.0583 78.1259 35.3006 78.0255 35.4792 77.8469C35.6579 77.6682 35.7582 77.4259 35.7582 77.1733V57.102C35.7585 56.9769 35.734 56.853 35.6862 56.7374C35.6385 56.6218 35.5684 56.5167 35.4799 56.4283C35.3914 56.3398 35.2864 56.2697 35.1708 56.2219C35.0551 56.1742 34.9312 56.1497 34.8061 56.1499H34.8034L28.1679 56.1673H28.1633C27.3485 56.1673 26.8624 55.6327 26.6775 55.1319C26.4925 54.6302 26.5154 53.9051 27.137 53.376L66.755 19.6831C67.0422 19.4364 67.4087 19.3014 67.7874 19.3029C68.166 19.3044 68.5314 19.4423 68.8167 19.6913L85.1308 33.7863C85.2688 33.9056 85.4383 33.9827 85.619 34.0085C85.7997 34.0342 85.9839 34.0075 86.1499 33.9315C86.3158 33.8555 86.4564 33.7334 86.5548 33.5797C86.6533 33.4261 86.7056 33.2474 86.7054 33.0649V29.6043C86.7066 28.8302 87.0147 28.0882 87.5622 27.5409C88.1096 26.9936 88.8517 26.6858 89.6258 26.6848H96.5817C98.1912 26.6848 99.5022 27.9939 99.5022 29.6052V45.7673C99.5022 46.0429 99.6212 46.3075 99.8317 46.4869L107.564 53.1682C108.177 53.6982 108.198 54.4197 108.014 54.9168C107.83 55.4157 107.343 55.9485 106.532 55.9513L100.452 55.9687C100.199 55.9691 99.9576 56.0697 99.7795 56.2482C99.6013 56.4267 99.5013 56.6686 99.5013 56.9208V93.5991C99.5013 95.2085 98.1921 96.5195 96.5808 96.5195H55.4111C55.1586 96.5195 54.9164 96.6198 54.7379 96.7984C54.5593 96.9769 54.459 97.2191 54.459 97.4716C54.459 97.7241 54.5593 97.9663 54.7379 98.1449C54.9164 98.3234 55.1586 98.4237 55.4111 98.4237H96.5827C97.8618 98.4223 99.0881 97.9135 99.9926 97.009C100.897 96.1045 101.406 94.8782 101.407 93.5991V57.8701L106.539 57.8564C107.251 57.8583 107.946 57.6407 108.53 57.2333C109.113 56.8259 109.558 56.2484 109.801 55.5796C110.053 54.9133 110.092 54.1858 109.915 53.4962C109.737 52.8066 109.352 52.1885 108.81 51.7263" fill="black"/>
<path d="M36.259 110.06C28.4224 110.06 22.046 103.684 22.046 95.8466C22.046 88.01 28.4215 81.6327 36.259 81.6327C44.0975 81.6327 50.4729 88.0091 50.4729 95.8466C50.4729 103.683 44.0975 110.06 36.259 110.06V110.06ZM36.259 79.7275C27.3714 79.7275 20.1408 86.959 20.1408 95.8466C20.1408 104.734 27.3714 111.965 36.259 111.965C45.1466 111.965 52.3781 104.734 52.3781 95.8466C52.3781 86.959 45.1466 79.7275 36.259 79.7275" fill="black"/>
<path d="M35.9935 94.89C35.2337 94.6612 34.602 94.4067 34.0984 94.132C33.5922 93.8555 33.3395 93.396 33.3395 92.7533C33.3395 92.0877 33.5803 91.565 34.0627 91.185C34.5452 90.806 35.1888 90.5808 35.9935 90.5131V94.89ZM39.3012 100.8C38.8187 101.271 38.1523 101.552 37.3027 101.645V96.6478C37.9587 96.827 38.5855 97.0995 39.1639 97.4571C39.737 97.8141 40.0244 98.3588 40.0244 99.0949C40.0244 99.7614 39.7837 100.329 39.3012 100.8ZM39.1804 95.8724C38.5267 95.6069 37.8987 95.3963 37.3027 95.2352V90.5131C37.8996 90.5817 38.3875 90.7145 38.7675 90.9095C39.1456 91.1054 39.4495 91.283 39.6802 91.4432C39.8633 91.6043 40.0473 91.6849 40.2313 91.6849C40.4144 91.6849 40.5765 91.6043 40.7138 91.4432C40.853 91.283 40.9198 91.1228 40.9198 90.9607C40.9198 90.7319 40.8282 90.5469 40.6451 90.4096C40.2771 90.0883 39.823 89.8127 39.2847 89.582C38.7437 89.3531 38.0827 89.2158 37.3027 89.1691V88.239C37.3027 87.7336 37.083 87.481 36.6481 87.481C36.2105 87.481 35.9935 87.7336 35.9935 88.239V89.1691C34.7054 89.2845 33.6956 89.6635 32.9596 90.3062C32.2244 90.9498 31.8573 91.7774 31.8573 92.7872C31.8573 93.5241 32.0587 94.1146 32.4606 94.5623C32.8625 95.0109 33.3789 95.3716 34.0115 95.6481C34.6432 95.9245 35.3042 96.1424 35.9935 96.3027V101.61C35.3481 101.518 34.7576 101.334 34.2184 101.058C33.6782 100.783 33.2589 100.462 32.9596 100.093C32.7756 99.9326 32.5815 99.852 32.3746 99.852C32.1715 99.8508 31.9752 99.9249 31.8235 100.06C31.7441 100.127 31.6811 100.212 31.6392 100.307C31.5973 100.402 31.5777 100.506 31.5818 100.61C31.5864 100.785 31.6467 100.954 31.7539 101.093C32.1677 101.575 32.7417 101.995 33.4768 102.351C34.212 102.707 35.0506 102.919 35.9935 102.988V104.815C35.9935 105.32 36.2105 105.573 36.6481 105.573C37.083 105.573 37.3027 105.32 37.3027 104.815V102.988C38.5423 102.874 39.5594 102.483 40.3513 101.816C41.145 101.15 41.5414 100.255 41.5414 99.1279C41.5414 98.2325 41.3125 97.5322 40.853 97.0268C40.3907 96.5196 39.8186 96.1247 39.1804 95.8724" fill="black"/>
</svg>
