<svg width="130" height="130" viewBox="0 0 130 130" fill="none" xmlns="http://www.w3.org/2000/svg">
<path d="M65 0C100.898 0 130 29.1017 130 65C130 100.898 100.898 130 65 130C29.1017 130 0 100.898 0 65C0 29.1017 29.1017 0 65 0Z" fill="#FBFBFB"/>
<path d="M106.831 59.7423C106.831 59.5351 106.748 59.3363 106.602 59.1898C106.455 59.0433 106.257 58.9609 106.049 58.9609C105.842 58.9609 105.643 59.0433 105.497 59.1898C105.35 59.3363 105.268 59.5351 105.268 59.7423V85.583H106.831V59.7423Z" fill="black"/>
<path d="M25.5148 43.7485H26.2966V41.6777C26.2966 39.1363 26.9018 37.3401 28.0974 36.3376C29.4899 35.1685 31.2888 35.4707 31.3034 35.4734C31.3511 35.4826 31.3987 35.4862 31.4472 35.4862H88.4C88.6026 35.4793 88.7946 35.3939 88.9355 35.2481C89.0763 35.1024 89.1551 34.9076 89.1551 34.7048C89.1551 34.5021 89.0763 34.3073 88.9355 34.1615C88.7946 34.0158 88.6026 33.9304 88.4 33.9235H31.5103C31.059 33.8585 28.903 33.6378 27.1142 35.1228C25.5349 36.4347 24.7339 38.6401 24.7339 41.6777V44.5304C24.7339 44.0992 25.0836 43.7485 25.5157 43.7485" fill="black"/>
<path d="M106.051 87.6821C106.22 87.6821 106.369 87.6171 106.497 87.5237H25.0671C25.1953 87.6171 25.3445 87.6821 25.5148 87.6821H106.051Z" fill="black"/>
<path d="M26.2966 45.3112H25.5148C25.3077 45.3112 25.109 45.2289 24.9626 45.0825C24.8161 44.936 24.7339 44.7374 24.7339 44.5303V85.5837H26.2966V45.3112Z" fill="black"/>
<path d="M25.5148 45.3113H86.7686C86.9712 45.3043 87.1632 45.219 87.3041 45.0732C87.4449 44.9274 87.5237 44.7326 87.5237 44.5299C87.5237 44.3272 87.4449 44.1324 87.3041 43.9866C87.1632 43.8408 86.9712 43.7555 86.7686 43.7485H25.5148C25.3076 43.7485 25.1088 43.8309 24.9623 43.9774C24.8157 44.1239 24.7334 44.3227 24.7334 44.5299C24.7334 44.7371 24.8157 44.9359 24.9623 45.0824C25.1088 45.229 25.3076 45.3113 25.5148 45.3113" fill="black"/>
<path d="M63.0372 38.8352C62.8298 38.8352 62.631 38.9176 62.4843 39.0642C62.3377 39.2108 62.2554 39.4097 62.2554 39.617C62.2554 39.8244 62.3377 40.0233 62.4843 40.1699C62.631 40.3165 62.8298 40.3989 63.0372 40.3989H68.0816C68.2888 40.3989 68.4875 40.3165 68.6341 40.17C68.7806 40.0235 68.8629 39.8247 68.8629 39.6175C68.8629 39.4103 68.7806 39.2115 68.6341 39.065C68.4875 38.9184 68.2888 38.8361 68.0816 38.8361L63.0372 38.8352Z" fill="black"/>
<path d="M114.464 89.6066C114.463 90.8925 113.951 92.1254 113.042 93.0347C112.133 93.9439 110.9 94.4554 109.614 94.4569H21.06C19.7742 94.4552 18.5416 93.9436 17.6325 93.0343C16.7234 92.1251 16.2121 90.8924 16.2106 89.6066V87.1458H114.464V89.6066ZM115.245 85.583H15.4297C15.3271 85.5829 15.2254 85.603 15.1306 85.6422C15.0357 85.6814 14.9495 85.7389 14.8769 85.8114C14.8043 85.8839 14.7467 85.9701 14.7074 86.0649C14.6681 86.1597 14.6479 86.2613 14.6479 86.3639V89.6066C14.6479 93.1422 17.5244 96.0196 21.06 96.0196H109.614C113.149 96.0196 116.026 93.1422 116.026 89.6066V86.3639C116.026 86.1568 115.944 85.9582 115.797 85.8117C115.651 85.6653 115.452 85.583 115.245 85.583" fill="black"/>
<path d="M100.857 39.7599L78.455 63.1727L67.351 51.8315C67.277 51.7559 67.1884 51.696 67.0906 51.6556C66.9927 51.6153 66.8877 51.5952 66.7819 51.5966C66.676 51.5981 66.5716 51.621 66.4749 51.6641C66.3782 51.7072 66.2913 51.7694 66.2194 51.8471L40.831 79.2478C40.6902 79.3997 40.6154 79.6013 40.6232 79.8082C40.631 80.0152 40.7208 80.2106 40.8726 80.3514C41.0245 80.4923 41.2261 80.567 41.4331 80.5592C41.64 80.5514 41.8354 80.4616 41.9763 80.3098L66.8081 53.5106L77.902 64.8444C77.9737 64.9213 78.061 64.982 78.1582 65.0223C78.2553 65.0625 78.36 65.0815 78.4651 65.0778C78.6756 65.0778 78.8789 64.9908 79.0253 64.837L102.491 40.3137C102.628 40.1709 102.706 39.9813 102.708 39.7834C102.71 39.5856 102.638 39.3942 102.504 39.2481L99.0783 35.4854H112.814V49.205L109.414 45.6712C109.341 45.5954 109.254 45.5351 109.157 45.4938C109.06 45.4526 108.956 45.4314 108.85 45.4313H108.841C108.734 45.4328 108.628 45.4563 108.53 45.5004C108.432 45.5445 108.345 45.6083 108.273 45.6877L78.7177 78.2032L67.4993 65.8267C67.4266 65.7466 67.338 65.6824 67.2392 65.6383C67.1404 65.5941 67.0335 65.571 66.9253 65.5703H66.9207C66.7028 65.5703 66.495 65.6619 66.3476 65.8212L54.1661 78.9732C54.0963 79.0484 54.0421 79.1367 54.0065 79.2329C53.9709 79.3291 53.9545 79.4314 53.9584 79.5339C53.9624 79.6364 53.9864 79.7372 54.0293 79.8304C54.0721 79.9236 54.1329 80.0075 54.2082 80.0772C54.2834 80.147 54.3717 80.2012 54.4679 80.2368C54.5641 80.2724 54.6664 80.2888 54.7689 80.2848C54.8715 80.2809 54.9722 80.2569 55.0654 80.214C55.1586 80.1712 55.2425 80.1104 55.3122 80.0351L66.9143 67.5094L78.1382 79.8914C78.2856 80.0553 78.4953 80.1486 78.7159 80.1486H78.7168C78.9365 80.1486 79.1471 80.0562 79.2954 79.8923L108.867 47.3566L113.032 51.6869C113.14 51.7992 113.28 51.8765 113.432 51.9091C113.585 51.9416 113.743 51.9278 113.888 51.8694C114.033 51.8111 114.156 51.7108 114.243 51.5815C114.331 51.4523 114.377 51.2999 114.377 51.144V34.7045C114.377 34.6019 114.357 34.5003 114.318 34.4054C114.278 34.3106 114.221 34.2245 114.148 34.152C114.075 34.0795 113.989 34.022 113.894 33.9828C113.8 33.9436 113.698 33.9235 113.595 33.9236H97.3105C97.1591 33.9236 97.0109 33.9676 96.8841 34.0503C96.7573 34.133 96.6572 34.2508 96.5961 34.3893C96.535 34.5278 96.5154 34.6811 96.5399 34.8305C96.5643 34.98 96.6317 35.1191 96.7337 35.2309L100.857 39.7599Z" fill="black"/>
</svg>
