<svg width="130" height="130" viewBox="0 0 130 130" fill="none" xmlns="http://www.w3.org/2000/svg">
<path d="M65 0C100.898 0 130 29.1017 130 65C130 100.898 100.898 130 65 130C29.1017 130 0 100.898 0 65C0 29.1017 29.1017 0 65 0Z" fill="#FBFBFB"/>
<path d="M46.7515 53.9042C46.7508 52.8924 46.3487 51.9223 45.6335 51.2066C44.9183 50.4909 43.9484 50.0881 42.9366 50.0866H37.4839V65.7077H40.2258V54.9214C40.2258 54.6785 40.3223 54.4457 40.494 54.274C40.6657 54.1023 40.8985 54.0059 41.1413 54.0059H46.7515V53.9042ZM46.7515 55.8368H42.0568V58.5787H46.7515V55.8368ZM46.7515 60.4097H42.0568V65.7086H42.9357C43.9473 65.7076 44.9171 65.3054 45.6325 64.5902C46.3478 63.8751 46.7503 62.9053 46.7515 61.8937V60.4097ZM35.653 50.0875H35.0854C34.074 50.089 33.1044 50.4915 32.3894 51.2069C31.6745 51.9222 31.2724 52.8919 31.2714 53.9033V54.7099H35.653V50.0875ZM35.653 56.5418H31.2705V59.2818H35.653V56.5418ZM35.653 61.1128H31.2714V61.8937C31.2724 62.9052 31.6746 63.875 32.3898 64.5902C33.105 65.3054 34.0748 65.7076 35.0863 65.7086H35.653V61.1128ZM48.5825 61.8937C48.5808 63.3906 47.9854 64.8257 46.927 65.8841C45.8685 66.9425 44.4335 67.5379 42.9366 67.5396H35.0863C33.5893 67.5381 32.1541 66.9428 31.0957 65.8844C30.0372 64.8259 29.4419 63.3907 29.4404 61.8937V53.9042C29.4419 52.4072 30.0371 50.9719 31.0956 49.9133C32.1541 48.8547 33.5893 48.2592 35.0863 48.2575H42.9366C46.0493 48.2575 48.5825 50.7897 48.5825 53.9042V61.8937ZM97.5851 78.2289H87.457V80.8527H97.5842L97.5851 78.2289ZM98.5006 76.3979C98.7434 76.3979 98.9763 76.4944 99.148 76.666C99.3197 76.8377 99.4161 77.0706 99.4161 77.3134V81.7682C99.4161 82.011 99.3197 82.2438 99.148 82.4155C98.9763 82.5872 98.7434 82.6837 98.5006 82.6837H86.5415C86.2987 82.6837 86.0659 82.5872 85.8942 82.4155C85.7225 82.2438 85.6261 82.011 85.6261 81.7682V77.3134C85.6261 77.0706 85.7225 76.8377 85.8942 76.666C86.0659 76.4944 86.2987 76.3979 86.5415 76.3979H98.5006ZM78.8441 78.2289H68.7169V80.8527H78.8441V78.2289ZM79.7596 76.3979C80.0024 76.3979 80.2352 76.4944 80.4069 76.666C80.5786 76.8377 80.6751 77.0706 80.6751 77.3134V81.7682C80.6751 82.011 80.5786 82.2438 80.4069 82.4155C80.2352 82.5872 80.0024 82.6837 79.7596 82.6837H67.8014C67.5586 82.6837 67.3257 82.5872 67.1541 82.4155C66.9824 82.2438 66.8859 82.011 66.8859 81.7682V77.3134C66.8859 77.0706 66.9824 76.8377 67.1541 76.666C67.3257 76.4944 67.5586 76.3979 67.8014 76.3979H79.7596ZM104.39 47.2541C104.388 45.6483 103.749 44.1088 102.614 42.9734C101.478 41.8379 99.9389 41.1991 98.3331 41.1972H30.7761C29.1702 41.1989 27.6305 41.8375 26.4948 42.973C25.3591 44.1085 24.7202 45.6481 24.7183 47.2541V82.9775C24.7202 84.5836 25.3591 86.1233 26.4947 87.2589C27.6304 88.3946 29.1701 89.0334 30.7761 89.0354H98.3331C99.9391 89.0334 101.479 88.3945 102.614 87.2589C103.75 86.1232 104.388 84.5835 104.39 82.9775V47.2541ZM98.3331 39.3662C102.682 39.3662 106.221 42.9046 106.221 47.2541V82.9775C106.221 87.3271 102.683 90.8663 98.3331 90.8663H30.7761C26.4257 90.8663 22.8873 87.3271 22.8873 82.9775V47.255C22.8873 42.9037 26.4257 39.3662 30.7761 39.3662H98.3331ZM100.227 48.6136C100.47 48.6136 100.703 48.7101 100.875 48.8817C101.046 49.0534 101.143 49.2863 101.143 49.5291C101.143 49.7719 101.046 50.0048 100.875 50.1764C100.703 50.3481 100.47 50.4446 100.227 50.4446H72.3258C72.083 50.4446 71.8501 50.3481 71.6784 50.1764C71.5067 50.0048 71.4103 49.7719 71.4103 49.5291C71.4103 49.2863 71.5067 49.0534 71.6784 48.8817C71.8501 48.7101 72.083 48.6136 72.3258 48.6136H100.227ZM100.227 54.8261C100.47 54.8261 100.703 54.9226 100.875 55.0943C101.046 55.266 101.143 55.4988 101.143 55.7416C101.143 55.9844 101.046 56.2173 100.875 56.389C100.703 56.5607 100.47 56.6571 100.227 56.6571H82.6415C82.3987 56.6571 82.1659 56.5607 81.9942 56.389C81.8225 56.2173 81.7261 55.9844 81.7261 55.7416C81.7261 55.4988 81.8225 55.266 81.9942 55.0943C82.1659 54.9226 82.3987 54.8261 82.6415 54.8261H100.227ZM60.3145 78.2289H50.1873V80.8527H60.3145V78.2289ZM61.23 76.3979C61.4728 76.3979 61.7057 76.4944 61.8773 76.666C62.049 76.8377 62.1455 77.0706 62.1455 77.3134V81.7682C62.1455 82.011 62.049 82.2438 61.8773 82.4155C61.7057 82.5872 61.4728 82.6837 61.23 82.6837H49.2718C49.029 82.6837 48.7962 82.5872 48.6245 82.4155C48.4528 82.2438 48.3563 82.011 48.3563 81.7682V77.3134C48.3563 77.0706 48.4528 76.8377 48.6245 76.666C48.7962 76.4944 49.029 76.3979 49.2718 76.3979H61.23ZM41.5149 80.8527H31.3877V78.2289H41.5149V80.8527ZM42.4303 76.3979H30.4731C30.2303 76.3979 29.9974 76.4944 29.8257 76.666C29.6541 76.8377 29.5576 77.0706 29.5576 77.3134V81.7682C29.5576 82.011 29.6541 82.2438 29.8257 82.4155C29.9974 82.5872 30.2303 82.6837 30.4731 82.6837H42.4294C42.6722 82.6837 42.9051 82.5872 43.0768 82.4155C43.2485 82.2438 43.3449 82.011 43.3449 81.7682V77.3134C43.3449 77.0706 43.2485 76.8377 43.0768 76.666C42.9051 76.4944 42.6722 76.3979 42.4294 76.3979" fill="black"/>
</svg>
