<svg width="130" height="130" viewBox="0 0 130 130" fill="none" xmlns="http://www.w3.org/2000/svg">
<path d="M65 0C100.898 0 130 29.1017 130 65C130 100.898 100.898 130 65 130C29.1017 130 0 100.898 0 65C0 29.1017 29.1017 0 65 0Z" fill="#FBFBFB"/>
<path d="M78.271 81.9549H41.2356C40.9928 81.9549 40.76 82.0514 40.5883 82.2231C40.4166 82.3948 40.3201 82.6276 40.3201 82.8704C40.3201 83.1132 40.4166 83.3461 40.5883 83.5178C40.76 83.6894 40.9928 83.7859 41.2356 83.7859H77.3555V95.6635C77.3555 99.3987 74.317 102.438 70.5808 102.438H40.6479C36.9117 102.438 33.8732 99.3987 33.8732 95.6635V27.831C33.8732 24.0958 36.9117 21.0563 40.6479 21.0563H70.5808C74.317 21.0563 77.3555 24.0958 77.3555 27.831V33.0475H41.6632C41.4203 33.0475 41.1875 33.1439 41.0158 33.3156C40.8441 33.4873 40.7477 33.7201 40.7477 33.9629C40.7477 34.2058 40.8441 34.4386 41.0158 34.6103C41.1875 34.782 41.4203 34.8784 41.6632 34.8784H78.271C78.5138 34.8784 78.7466 34.782 78.9183 34.6103C79.09 34.4386 79.1865 34.2058 79.1865 33.9629V27.831C79.1865 23.086 75.3258 19.2253 70.5808 19.2253H40.6479C35.9029 19.2253 32.0422 23.086 32.0422 27.831V95.6635C32.0422 100.408 35.9029 104.269 40.6479 104.269H70.5808C75.3258 104.269 79.1865 100.408 79.1865 95.6635V82.8704C79.1865 82.6276 79.09 82.3948 78.9183 82.2231C78.7466 82.0514 78.5138 81.9549 78.271 81.9549" fill="black"/>
<path d="M45.2665 28.1249C45.5093 28.1249 45.7422 28.0285 45.9139 27.8568C46.0856 27.6851 46.182 27.4522 46.182 27.2094C46.182 26.9666 46.0856 26.7338 45.9139 26.5621C45.7422 26.3904 45.5093 26.2939 45.2665 26.2939H42.9787C42.7359 26.2939 42.5031 26.3904 42.3314 26.5621C42.1597 26.7338 42.0632 26.9666 42.0632 27.2094C42.0632 27.4522 42.1597 27.6851 42.3314 27.8568C42.5031 28.0285 42.7359 28.1249 42.9787 28.1249H45.2665Z" fill="black"/>
<path d="M59.8622 28.1249C60.105 28.1249 60.3379 28.0285 60.5096 27.8568C60.6813 27.6851 60.7777 27.4522 60.7777 27.2094C60.7777 26.9666 60.6813 26.7338 60.5096 26.5621C60.3379 26.3904 60.105 26.2939 59.8622 26.2939H52.2362C51.9934 26.2939 51.7605 26.3904 51.5888 26.5621C51.4171 26.7338 51.3207 26.9666 51.3207 27.2094C51.3207 27.4522 51.4171 27.6851 51.5888 27.8568C51.7605 28.0285 51.9934 28.1249 52.2362 28.1249H59.8622Z" fill="black"/>
<path d="M54.3216 92.604C54.3216 91.3681 55.3287 90.361 56.5655 90.361C57.1602 90.3617 57.7302 90.5983 58.1507 91.0188C58.5712 91.4392 58.8077 92.0093 58.8085 92.604C58.8077 93.1986 58.5712 93.7687 58.1507 94.1892C57.7302 94.6097 57.1602 94.8462 56.5655 94.8469C55.9709 94.846 55.401 94.6093 54.9806 94.1889C54.5602 93.7685 54.3235 93.1985 54.3226 92.604H54.3216ZM60.6395 92.604C60.6382 91.5239 60.2086 90.4883 59.4449 89.7246C58.6811 88.9608 57.6456 88.5312 56.5655 88.53C55.4855 88.5315 54.4501 88.9612 53.6864 89.7249C52.9227 90.4886 52.493 91.5239 52.4916 92.604C52.493 93.684 52.9227 94.7194 53.6864 95.4831C54.4501 96.2468 55.4855 96.6765 56.5655 96.6779C57.6456 96.6767 58.6811 96.2471 59.4449 95.4833C60.2086 94.7196 60.6382 93.6841 60.6395 92.604" fill="black"/>
<path d="M79.419 74.7042C70.6733 74.7042 63.559 67.589 63.559 58.8442C63.559 50.0994 70.6733 42.9851 79.419 42.9851C88.1629 42.9851 95.2772 50.0994 95.2772 58.8442C95.2772 67.589 88.1629 74.7042 79.419 74.7042ZM79.419 41.155C69.6635 41.155 61.728 49.0905 61.728 58.8451C61.728 68.5997 69.6635 76.5352 79.419 76.5352C89.1727 76.5352 97.1082 68.5997 97.1082 58.8451C97.1082 49.0905 89.1727 41.155 79.419 41.155" fill="black"/>
<path d="M79.1251 57.7858C78.2856 57.5322 77.5862 57.2521 77.0286 56.9472C76.4693 56.6424 76.1901 56.1343 76.1901 55.4229C76.1901 54.686 76.4555 54.1074 76.9902 53.6881C77.5239 53.2688 78.2353 53.0207 79.1251 52.9447V57.7858ZM82.7834 64.3224C82.2506 64.8443 81.5127 65.1555 80.5734 65.2562V59.7294C81.2985 59.9286 81.9914 60.2301 82.6315 60.6248C83.2659 61.0193 83.5836 61.6227 83.5836 62.4356C83.5836 63.1735 83.3172 63.8015 82.7834 64.3224V64.3224ZM82.6507 58.8725C81.9727 58.5961 81.2787 58.3607 80.5725 58.1676V52.9447C81.2335 53.0207 81.7737 53.1681 82.1929 53.3841C82.5419 53.5587 82.8792 53.7556 83.2027 53.9737C83.406 54.1522 83.6092 54.241 83.8134 54.241C84.0148 54.241 84.1942 54.1522 84.3462 53.9737C84.4991 53.7961 84.5751 53.6185 84.5751 53.44C84.5781 53.3211 84.5519 53.2034 84.4988 53.0971C84.4456 52.9907 84.3671 52.8991 84.2702 52.8303C83.8637 52.4751 83.3611 52.1711 82.7651 51.9157C82.1673 51.6621 81.4358 51.5092 80.5734 51.4579V50.4289C80.5734 49.8705 80.3308 49.5903 79.8493 49.5903C79.3641 49.5903 79.1251 49.8705 79.1251 50.4289V51.4579C77.7006 51.5861 76.5828 52.0054 75.7698 52.7158C74.9569 53.4281 74.5504 54.3427 74.5504 55.4605C74.5504 56.2753 74.7729 56.928 75.2178 57.4233C75.6627 57.9195 76.2331 58.3186 76.9334 58.6235C77.631 58.9293 78.3616 59.171 79.1251 59.3486V65.2178C78.4414 65.1256 77.778 64.9195 77.1623 64.6081C76.5636 64.3032 76.1003 63.9489 75.7698 63.5415C75.5666 63.3639 75.3515 63.2742 75.1226 63.2742C74.8981 63.2728 74.681 63.3543 74.5129 63.5031C74.4252 63.5779 74.3557 63.6717 74.3096 63.7773C74.2634 63.8829 74.2418 63.9976 74.2465 64.1128C74.2465 64.2913 74.3087 64.4698 74.436 64.6465C74.8937 65.1803 75.5282 65.6444 76.342 66.0381C77.155 66.4317 78.0815 66.6661 79.1251 66.743V68.7626C79.1251 69.322 79.365 69.6021 79.8484 69.6021C80.3308 69.6021 80.5734 69.322 80.5734 68.7626V66.743C81.9449 66.6158 83.0691 66.1846 83.9461 65.4467C84.8232 64.7106 85.2608 63.7191 85.2608 62.4741C85.2608 61.4826 85.0072 60.7081 84.4991 60.1487C83.9877 59.5882 83.3552 59.1518 82.6498 58.8725" fill="black"/>
</svg>
