<svg width="30" height="30" viewBox="0 0 30 30" fill="none" xmlns="http://www.w3.org/2000/svg">
<path d="M21.5517 9.43783C20.3448 8.92059 19.1379 8.48955 17.8448 8.31714H17.7586C17.5862 8.66197 17.4138 8.92059 17.3276 9.26541C15.9483 9.093 14.4828 9.093 13.1034 9.26541C12.931 9.00679 12.8448 8.66197 12.6724 8.31714C12.6724 8.31714 12.6724 8.31714 12.5862 8.31714C11.2931 8.57576 9.99999 8.92059 8.8793 9.43783C6.72413 12.5413 5.68965 16.2482 6.12068 19.9551C6.12068 19.9551 6.12068 19.9551 6.12068 20.0413C7.49999 21.0758 9.05172 21.8516 10.6896 22.3689H10.7759C11.1207 21.8516 11.4655 21.4206 11.7241 20.8171V20.7309C11.2069 20.5585 10.7759 20.2999 10.2586 20.0413V19.9551C10.3448 19.8689 10.431 19.7827 10.5172 19.6964C10.5172 19.6964 10.5172 19.6964 10.6034 19.6964C13.5345 21.0758 16.8965 21.0758 19.8276 19.6964H19.9138C20 19.7827 20.0862 19.8689 20.1724 19.9551V20.0413C19.7414 20.2999 19.2241 20.5585 18.7069 20.7309C18.7069 20.7309 18.6207 20.8171 18.7069 20.8171C18.9655 21.3344 19.3103 21.8516 19.6552 22.3689C19.6552 22.3689 19.6552 22.3689 19.7414 22.3689C21.3793 21.8516 22.931 21.0758 24.3103 20.0413C24.6552 16.2482 23.7069 12.5413 21.5517 9.43783C21.5517 9.43783 21.5517 9.52404 21.5517 9.43783ZM12.1552 17.8861C11.2069 17.7999 10.431 16.9378 10.5172 15.9896C10.431 15.0413 11.2069 14.1792 12.1552 14.1792C13.1034 14.2654 13.8793 15.0413 13.7931 15.9896C13.8793 16.9378 13.1034 17.7999 12.1552 17.8861ZM18.2759 17.8861C17.3276 17.7999 16.5517 17.024 16.6379 16.0758C16.5517 15.1275 17.3276 14.2654 18.2759 14.2654C19.2241 14.3516 20 15.1275 19.9138 16.0758C19.9138 16.9378 19.2241 17.7999 18.2759 17.8861Z" fill="white"/>
<path d="M3.44827 0.862061H26.5517C28.0172 0.862061 29.1379 1.98275 29.1379 3.44827V26.5517C29.1379 28.0172 28.0172 29.1379 26.5517 29.1379H3.44827C1.98275 29.1379 0.862061 28.0172 0.862061 26.5517V3.44827C0.862061 1.98275 1.98275 0.862061 3.44827 0.862061Z" stroke="white" stroke-width="2" stroke-linecap="round"/>
</svg>
