<svg width="30" height="30" viewBox="0 0 30 30" fill="none" xmlns="http://www.w3.org/2000/svg">
<g clip-path="url(#clip0_0_233)">
<path d="M6.09192 10.902C6.19467 10.0776 6.44735 9.27902 6.83748 8.5456C7.302 7.80066 7.95595 7.19239 8.73251 6.78293C9.50908 6.37347 10.3804 6.17751 11.2575 6.21506C13.7462 6.15422 16.236 6.15422 18.7269 6.21506C19.5454 6.18569 20.3585 6.35846 21.0943 6.7181C21.8301 7.07773 22.4659 7.61315 22.9455 8.27699C23.5676 9.20382 23.8909 10.299 23.8719 11.4151C23.908 13.8067 23.9252 16.2001 23.8719 18.5918C23.9232 19.51 23.7143 20.424 23.2691 21.2286C22.8239 22.0333 22.1605 22.6958 21.3554 23.1401C20.5304 23.5761 19.6109 23.8026 18.6779 23.7996C16.2208 23.828 13.762 23.8521 11.3057 23.7996C10.4208 23.8419 9.54066 23.648 8.75545 23.2378C7.97024 22.8277 7.30828 22.216 6.83748 21.4656C6.44724 20.7325 6.19455 19.9342 6.09192 19.1101V10.902ZM15.0069 7.90163C13.7861 7.90163 12.5652 7.87838 11.3453 7.90679C9.43921 7.95156 8.26662 8.8452 7.92053 10.4896C7.8415 10.8387 7.79795 11.1949 7.79053 11.5528C7.77934 13.8644 7.74835 16.176 7.7957 18.4859C7.84306 20.7958 9.00102 22.0157 11.2222 22.0958C13.7267 22.1879 16.2354 22.1819 18.7399 22.0958C19.5071 22.1536 20.2685 21.9254 20.8775 21.4552C21.4865 20.985 21.8999 20.306 22.0381 19.5492C22.1099 19.2651 22.1515 18.9742 22.1621 18.6813C22.1758 16.0469 22.3205 13.409 22.082 10.7789C22.0391 10.0622 21.7386 9.38513 21.2357 8.87264C20.7329 8.36015 20.0617 8.04677 19.3459 7.9903C17.9025 7.87674 16.4537 7.84713 15.0069 7.90163V7.90163Z" fill="white"/>
<path d="M19.5973 15.0344C19.598 15.9488 19.327 16.8428 18.8189 17.6031C18.3107 18.3633 17.5882 18.9555 16.7429 19.3045C15.8977 19.6536 14.9679 19.7437 14.0714 19.5635C13.1749 19.3833 12.3521 18.9409 11.7073 18.2924C11.0626 17.644 10.625 16.8186 10.45 15.921C10.275 15.0235 10.3705 14.0942 10.7245 13.251C11.0784 12.4078 11.6747 11.6888 12.4379 11.185C13.2011 10.6813 14.0967 10.4155 15.0111 10.4215C16.2287 10.4324 17.393 10.9227 18.2515 11.7862C19.11 12.6497 19.5935 13.8167 19.5973 15.0344V15.0344ZM17.8858 15.012C17.893 14.4363 17.7289 13.8714 17.4144 13.3892C17.0999 12.9069 16.6492 12.5289 16.1195 12.3033C15.5898 12.0777 15.005 12.0146 14.4393 12.122C13.8737 12.2294 13.3527 12.5025 12.9426 12.9066C12.5324 13.3107 12.2517 13.8275 12.1358 14.3915C12.02 14.9555 12.0744 15.5411 12.2921 16.0741C12.5098 16.6071 12.881 17.0634 13.3585 17.3851C13.836 17.7067 14.3984 17.8792 14.9741 17.8806C15.7397 17.8831 16.4752 17.5831 17.0206 17.0458C17.566 16.5085 17.8769 15.7775 17.8858 15.012V15.012Z" fill="white"/>
<path d="M19.723 9.21631C19.9386 9.22055 20.148 9.28816 20.3254 9.41069C20.5027 9.53321 20.64 9.70523 20.7203 9.9053C20.8005 10.1054 20.82 10.3246 20.7764 10.5357C20.7328 10.7468 20.6281 10.9404 20.4752 11.0924C20.3223 11.2443 20.1281 11.3479 19.9167 11.3902C19.7053 11.4324 19.4862 11.4115 19.2866 11.3301C19.0871 11.2486 18.9159 11.1102 18.7945 10.9322C18.6731 10.7541 18.6067 10.5442 18.6038 10.3286C18.6056 10.033 18.7244 9.75009 18.9341 9.54168C19.1437 9.33327 19.4274 9.2163 19.723 9.21631Z" fill="white"/>
<path d="M26.5562 0.86084H3.44369C2.01726 0.86084 0.860901 2.0172 0.860901 3.44363V26.5562C0.860901 27.9826 2.01726 29.139 3.44369 29.139H26.5562C27.9827 29.139 29.139 27.9826 29.139 26.5562V3.44363C29.139 2.0172 27.9827 0.86084 26.5562 0.86084Z" stroke="white" stroke-width="2" stroke-linecap="round" stroke-linejoin="round"/>
</g>
<defs>
<clipPath id="clip0_0_233">
<rect width="30" height="30" fill="white"/>
</clipPath>
</defs>
</svg>
