<svg width="30" height="30" viewBox="0 0 30 30" fill="none" xmlns="http://www.w3.org/2000/svg">
<g clip-path="url(#clip0_0_240)">
<path d="M11.0603 9.42233C11.1465 10.2844 10.4569 10.9741 9.68101 10.9741C9.5948 10.9741 9.5948 10.9741 9.5086 10.9741C8.64653 11.0603 7.87067 10.4568 7.87067 9.59474C7.87067 9.59474 7.87067 9.59474 7.87067 9.50854C7.87067 8.64647 8.56032 7.87061 9.42239 7.87061C10.2845 7.87061 10.9741 8.47405 10.9741 9.33612C11.0603 9.42233 11.0603 9.42233 11.0603 9.42233Z" fill="white"/>
<path d="M11.0603 11.8362H7.87067V22.181H11.0603V11.8362Z" fill="white"/>
<path d="M18.6465 12.0085C17.4396 12.0085 16.3189 12.612 15.6293 13.5603H15.5431L15.4569 12.2672H12.5258C12.5258 13.1292 12.612 14.1637 12.612 15.3706V22.181H15.8017V16.4913C15.8017 16.2327 15.8017 15.9741 15.8879 15.7154C16.0603 15.0258 16.6637 14.5085 17.4396 14.4223C18.5603 14.4223 18.9913 15.3706 18.9913 16.6637V22.181H22.181V16.3189C22.181 13.3879 20.6293 12.0085 18.6465 12.0085Z" fill="white"/>
<path d="M3.44827 0.862061H26.5517C28.0172 0.862061 29.1379 1.98275 29.1379 3.44827V26.5517C29.1379 28.0172 28.0172 29.1379 26.5517 29.1379H3.44827C1.98275 29.1379 0.862061 28.0172 0.862061 26.5517V3.44827C0.862061 1.98275 1.98275 0.862061 3.44827 0.862061Z" stroke="white" stroke-width="2" stroke-linecap="round" stroke-linejoin="round"/>
</g>
<defs>
<clipPath id="clip0_0_240">
<rect width="30" height="30" fill="white"/>
</clipPath>
</defs>
</svg>
