<svg width="30" height="30" viewBox="0 0 30 30" fill="none" xmlns="http://www.w3.org/2000/svg">
<g clip-path="url(#clip0_0_224)">
<path d="M3.44827 0.862061H26.5517C28.0172 0.862061 29.1379 1.98275 29.1379 3.44827V26.5517C29.1379 28.0172 28.0172 29.1379 26.5517 29.1379H3.44827C1.98275 29.1379 0.862061 28.0172 0.862061 26.5517V3.44827C0.862061 1.98275 1.98275 0.862061 3.44827 0.862061Z" stroke="white" stroke-width="2" stroke-linecap="round" stroke-linejoin="round"/>
<path d="M19.9138 9.65514H21.6379V5.94824H19.0517C15.3448 5.94824 13.6207 8.18962 13.6207 11.2931V14.2241H10.6896V17.8448H13.6207V26.9827H17.931V17.7586H20.8621L21.7241 14.1379H18.0172V11.7241C17.931 10.6896 18.7069 9.74135 19.7414 9.65514C19.7414 9.65514 19.8276 9.65514 19.9138 9.65514Z" fill="white"/>
</g>
<defs>
<clipPath id="clip0_0_224">
<rect width="30" height="30" fill="white"/>
</clipPath>
</defs>
</svg>
