<svg width="30" height="30" viewBox="0 0 30 30" fill="none" xmlns="http://www.w3.org/2000/svg">
<path d="M6.28027 20.4256C8.08027 20.5971 9.88027 20.0828 11.4231 19.0542C11.0803 18.9685 10.8231 18.8828 10.566 18.7971C9.53742 18.4542 8.76599 17.7685 8.33742 16.8256C8.16599 16.4828 8.2517 16.4828 8.59456 16.4828C8.93742 16.5685 9.36599 16.4828 9.70885 16.3971C9.02313 16.2256 8.50884 15.9685 8.08027 15.5399C7.39456 14.9399 6.96599 14.0828 6.96599 13.2256C6.96599 12.8828 6.96599 12.7971 7.30884 12.9685C7.6517 13.1399 7.99456 13.2256 8.33742 13.2256C8.08027 12.9685 7.82313 12.7113 7.6517 12.4542C6.88027 11.4256 6.70884 10.0542 7.22313 8.8542C7.39456 8.51134 7.39456 8.51134 7.6517 8.76849C9.36599 10.7399 11.6803 11.9399 14.2517 12.1971C14.6803 12.1971 14.6803 12.1971 14.6803 11.7685C14.5088 10.3113 15.2803 8.93992 16.566 8.2542C17.8517 7.56849 19.4803 7.73992 20.5946 8.76849C20.766 8.93992 21.0231 9.02563 21.2803 8.93992C21.7946 8.76849 22.3946 8.59706 22.8231 8.33992C22.9088 8.33992 22.9946 8.2542 23.0803 8.2542C22.8231 8.93992 22.3946 9.62563 21.7946 10.0542C22.3946 9.96849 22.9946 9.79706 23.5088 9.62563C23.5088 9.79706 23.4231 9.96849 23.3374 10.0542C22.9946 10.4828 22.566 10.9113 22.1374 11.2542C21.966 11.4256 21.7946 11.5971 21.8803 11.8542C21.8803 14.1685 21.1946 16.3971 19.7374 18.1971C18.1088 20.3399 15.7088 21.7113 13.0517 22.0542C10.8231 22.3113 8.59456 21.8828 6.62313 20.7685C6.53742 20.7685 6.4517 20.6828 6.4517 20.5971C6.36599 20.5113 6.28027 20.4256 6.28027 20.4256Z" fill="white" stroke="white" stroke-width="0.0285714" stroke-miterlimit="2" stroke-linejoin="round"/>
<path d="M3.42855 0.857178H26.4C27.8571 0.857178 28.9714 1.97146 28.9714 3.42861V26.4C28.9714 27.8572 27.8571 28.9715 26.4 28.9715H3.42855C1.9714 28.9715 0.857117 27.8572 0.857117 26.4V3.42861C0.857117 1.97146 1.9714 0.857178 3.42855 0.857178Z" stroke="white" stroke-width="0.0571429" stroke-linecap="round" stroke-linejoin="round"/>
<rect x="1" y="1" width="28" height="28" rx="2" stroke="white" stroke-width="2"/>
</svg>
